<mxfile host="app.diagrams.net" modified="2021-12-17T07:59:22.960Z" agent="5.0 (Windows NT 10.0; Win64; x64) AppleWebKit/537.36 (KHTML, like Gecko) Chrome/96.0.4664.110 Safari/537.36" etag="8lCUk3fYA1KhOljxjFm7" version="15.9.6" type="github">
  <diagram id="RCKqnbh_RHbgNE8QMYtj" name="Page-1">
    <mxGraphModel dx="1408" dy="748" grid="1" gridSize="10" guides="1" tooltips="1" connect="1" arrows="1" fold="1" page="1" pageScale="1" pageWidth="827" pageHeight="1169" math="0" shadow="0">
      <root>
        <mxCell id="0" />
        <mxCell id="1" parent="0" />
        <mxCell id="hzMNRY1q1cPNWg9w0ZGH-1" value="" style="rounded=0;whiteSpace=wrap;html=1;" vertex="1" parent="1">
          <mxGeometry x="100" y="180" width="680" height="220" as="geometry" />
        </mxCell>
        <mxCell id="hzMNRY1q1cPNWg9w0ZGH-2" value="" style="rounded=0;whiteSpace=wrap;html=1;" vertex="1" parent="1">
          <mxGeometry x="100" y="600" width="680" height="220" as="geometry" />
        </mxCell>
        <mxCell id="hzMNRY1q1cPNWg9w0ZGH-6" value=":3010" style="rounded=0;whiteSpace=wrap;html=1;" vertex="1" parent="1">
          <mxGeometry x="140" y="200" width="140" height="60" as="geometry" />
        </mxCell>
        <mxCell id="hzMNRY1q1cPNWg9w0ZGH-7" value="monconsumer_upstream" style="rounded=0;whiteSpace=wrap;html=1;" vertex="1" parent="1">
          <mxGeometry x="140" y="310" width="140" height="60" as="geometry" />
        </mxCell>
        <mxCell id="hzMNRY1q1cPNWg9w0ZGH-9" value=":30125" style="rounded=0;whiteSpace=wrap;html=1;" vertex="1" parent="1">
          <mxGeometry x="140" y="610" width="140" height="60" as="geometry" />
        </mxCell>
        <mxCell id="hzMNRY1q1cPNWg9w0ZGH-10" value="monitoring-rest" style="rounded=0;whiteSpace=wrap;html=1;" vertex="1" parent="1">
          <mxGeometry x="140" y="720" width="140" height="60" as="geometry" />
        </mxCell>
        <mxCell id="hzMNRY1q1cPNWg9w0ZGH-11" value="" style="endArrow=classic;html=1;rounded=0;exitX=0.5;exitY=1;exitDx=0;exitDy=0;entryX=0.5;entryY=0;entryDx=0;entryDy=0;" edge="1" parent="1" source="hzMNRY1q1cPNWg9w0ZGH-6" target="hzMNRY1q1cPNWg9w0ZGH-7">
          <mxGeometry width="50" height="50" relative="1" as="geometry">
            <mxPoint x="390" y="520" as="sourcePoint" />
            <mxPoint x="440" y="470" as="targetPoint" />
          </mxGeometry>
        </mxCell>
        <mxCell id="hzMNRY1q1cPNWg9w0ZGH-12" value="" style="endArrow=classic;html=1;rounded=0;exitX=0.5;exitY=1;exitDx=0;exitDy=0;entryX=0.5;entryY=0;entryDx=0;entryDy=0;" edge="1" parent="1" source="hzMNRY1q1cPNWg9w0ZGH-7" target="hzMNRY1q1cPNWg9w0ZGH-9">
          <mxGeometry width="50" height="50" relative="1" as="geometry">
            <mxPoint x="390" y="520" as="sourcePoint" />
            <mxPoint x="440" y="470" as="targetPoint" />
          </mxGeometry>
        </mxCell>
        <mxCell id="hzMNRY1q1cPNWg9w0ZGH-13" value="" style="endArrow=classic;html=1;rounded=0;exitX=0.5;exitY=1;exitDx=0;exitDy=0;" edge="1" parent="1" source="hzMNRY1q1cPNWg9w0ZGH-9" target="hzMNRY1q1cPNWg9w0ZGH-10">
          <mxGeometry width="50" height="50" relative="1" as="geometry">
            <mxPoint x="390" y="520" as="sourcePoint" />
            <mxPoint x="440" y="470" as="targetPoint" />
          </mxGeometry>
        </mxCell>
        <mxCell id="hzMNRY1q1cPNWg9w0ZGH-20" value=":3020" style="rounded=0;whiteSpace=wrap;html=1;" vertex="1" parent="1">
          <mxGeometry x="380" y="200" width="140" height="60" as="geometry" />
        </mxCell>
        <mxCell id="hzMNRY1q1cPNWg9w0ZGH-21" value="mondisp_upstream" style="rounded=0;whiteSpace=wrap;html=1;" vertex="1" parent="1">
          <mxGeometry x="380" y="310" width="140" height="60" as="geometry" />
        </mxCell>
        <mxCell id="hzMNRY1q1cPNWg9w0ZGH-22" value=":30124" style="rounded=0;whiteSpace=wrap;html=1;" vertex="1" parent="1">
          <mxGeometry x="380" y="610" width="140" height="60" as="geometry" />
        </mxCell>
        <mxCell id="hzMNRY1q1cPNWg9w0ZGH-23" value="monitoring-view" style="rounded=0;whiteSpace=wrap;html=1;" vertex="1" parent="1">
          <mxGeometry x="380" y="720" width="140" height="60" as="geometry" />
        </mxCell>
        <mxCell id="hzMNRY1q1cPNWg9w0ZGH-24" value="" style="endArrow=classic;html=1;rounded=0;exitX=0.5;exitY=1;exitDx=0;exitDy=0;entryX=0.5;entryY=0;entryDx=0;entryDy=0;" edge="1" parent="1" source="hzMNRY1q1cPNWg9w0ZGH-20" target="hzMNRY1q1cPNWg9w0ZGH-21">
          <mxGeometry width="50" height="50" relative="1" as="geometry">
            <mxPoint x="630" y="520" as="sourcePoint" />
            <mxPoint x="680" y="470" as="targetPoint" />
          </mxGeometry>
        </mxCell>
        <mxCell id="hzMNRY1q1cPNWg9w0ZGH-25" value="" style="endArrow=classic;html=1;rounded=0;exitX=0.5;exitY=1;exitDx=0;exitDy=0;entryX=0.5;entryY=0;entryDx=0;entryDy=0;" edge="1" parent="1" source="hzMNRY1q1cPNWg9w0ZGH-21" target="hzMNRY1q1cPNWg9w0ZGH-22">
          <mxGeometry width="50" height="50" relative="1" as="geometry">
            <mxPoint x="630" y="520" as="sourcePoint" />
            <mxPoint x="680" y="470" as="targetPoint" />
          </mxGeometry>
        </mxCell>
        <mxCell id="hzMNRY1q1cPNWg9w0ZGH-26" value="" style="endArrow=classic;html=1;rounded=0;exitX=0.5;exitY=1;exitDx=0;exitDy=0;" edge="1" parent="1" source="hzMNRY1q1cPNWg9w0ZGH-22" target="hzMNRY1q1cPNWg9w0ZGH-23">
          <mxGeometry width="50" height="50" relative="1" as="geometry">
            <mxPoint x="630" y="520" as="sourcePoint" />
            <mxPoint x="680" y="470" as="targetPoint" />
          </mxGeometry>
        </mxCell>
        <mxCell id="hzMNRY1q1cPNWg9w0ZGH-27" value=":3030" style="rounded=0;whiteSpace=wrap;html=1;" vertex="1" parent="1">
          <mxGeometry x="610" y="200" width="140" height="60" as="geometry" />
        </mxCell>
        <mxCell id="hzMNRY1q1cPNWg9w0ZGH-28" value="monetl_upstream" style="rounded=0;whiteSpace=wrap;html=1;" vertex="1" parent="1">
          <mxGeometry x="610" y="310" width="140" height="60" as="geometry" />
        </mxCell>
        <mxCell id="hzMNRY1q1cPNWg9w0ZGH-29" value=":30123" style="rounded=0;whiteSpace=wrap;html=1;" vertex="1" parent="1">
          <mxGeometry x="610" y="610" width="140" height="60" as="geometry" />
        </mxCell>
        <mxCell id="hzMNRY1q1cPNWg9w0ZGH-31" value="" style="endArrow=classic;html=1;rounded=0;exitX=0.5;exitY=1;exitDx=0;exitDy=0;entryX=0.5;entryY=0;entryDx=0;entryDy=0;" edge="1" parent="1" source="hzMNRY1q1cPNWg9w0ZGH-27" target="hzMNRY1q1cPNWg9w0ZGH-28">
          <mxGeometry width="50" height="50" relative="1" as="geometry">
            <mxPoint x="860" y="520" as="sourcePoint" />
            <mxPoint x="910" y="470" as="targetPoint" />
          </mxGeometry>
        </mxCell>
        <mxCell id="hzMNRY1q1cPNWg9w0ZGH-32" value="" style="endArrow=classic;html=1;rounded=0;exitX=0.5;exitY=1;exitDx=0;exitDy=0;entryX=0.5;entryY=0;entryDx=0;entryDy=0;" edge="1" parent="1" source="hzMNRY1q1cPNWg9w0ZGH-28" target="hzMNRY1q1cPNWg9w0ZGH-29">
          <mxGeometry width="50" height="50" relative="1" as="geometry">
            <mxPoint x="860" y="520" as="sourcePoint" />
            <mxPoint x="910" y="470" as="targetPoint" />
          </mxGeometry>
        </mxCell>
      </root>
    </mxGraphModel>
  </diagram>
</mxfile>
